<?xml version="1.0" encoding="UTF-8" standalone="no"?><svg xmlns="http://www.w3.org/2000/svg" xmlns:xlink="http://www.w3.org/1999/xlink" contentScriptType="application/ecmascript" contentStyleType="text/css" height="264px" preserveAspectRatio="none" style="width:325px;height:264px;background:#FFFFFF;" version="1.1" viewBox="0 0 325 264" width="325px" zoomAndPan="magnify"><defs><filter height="300%" id="f1hg58kfrprehi" width="300%" x="-1" y="-1"><feGaussianBlur result="blurOut" stdDeviation="2.0"/><feColorMatrix in="blurOut" result="blurOut2" type="matrix" values="0 0 0 0 0 0 0 0 0 0 0 0 0 0 0 0 0 0 .4 0"/><feOffset dx="4.0" dy="4.0" in="blurOut2" result="blurOut3"/><feBlend in="SourceGraphic" in2="blurOut3" mode="normal"/></filter></defs><g><!--MD5=[111002b242a260edbcaabc3e471064d0]
cluster checkout--><rect fill="#FFFFFF" filter="url(#f1hg58kfrprehi)" height="245" style="stroke:#000000;stroke-width:1.5;" width="133" x="109" y="7"/><text fill="#000000" font-family="sans-serif" font-size="14" font-weight="bold" lengthAdjust="spacing" textLength="63" x="144" y="22.9999">checkout</text><ellipse cx="175.379" cy="138.8801" fill="#F8F8F8" filter="url(#f1hg58kfrprehi)" rx="50.379" ry="14.8801" style="stroke:#383838;stroke-width:1.5;"/><text fill="#000000" font-family="sans-serif" font-size="14" lengthAdjust="spacing" textLength="55" x="147.5106" y="142.5724">checkout</text><ellipse cx="175.4619" cy="56.8793" fill="#F8F8F8" filter="url(#f1hg58kfrprehi)" rx="48.9619" ry="14.8793" style="stroke:#383838;stroke-width:1.5;"/><text fill="#000000" font-family="sans-serif" font-size="14" lengthAdjust="spacing" textLength="53" x="148.9619" y="60.4793">payment</text><ellipse cx="175.3701" cy="220.8793" fill="#F8F8F8" filter="url(#f1hg58kfrprehi)" rx="29.8701" ry="14.8793" style="stroke:#383838;stroke-width:1.5;"/><text fill="#000000" font-family="sans-serif" font-size="14" lengthAdjust="spacing" textLength="26" x="162.3701" y="224.4793">help</text><!--MD5=[92848cbaf65985a669855153c5362c37]
entity customer--><ellipse cx="34" cy="107.5" fill="#F8F8F8" filter="url(#f1hg58kfrprehi)" rx="8" ry="8" style="stroke:#383838;stroke-width:1.5;"/><path d="M34,115.5 L34,142.5 M21,123.5 L47,123.5 M34,142.5 L21,157.5 M34,142.5 L47,157.5 " fill="none" filter="url(#f1hg58kfrprehi)" style="stroke:#383838;stroke-width:1.5;"/><text fill="#000000" font-family="sans-serif" font-size="14" lengthAdjust="spacing" textLength="56" x="6" y="176.9999">customer</text><!--MD5=[ebeabf449828f4e0b33bbb47961e644b]
entity clerk--><ellipse cx="303.5" cy="107.5" fill="#F8F8F8" filter="url(#f1hg58kfrprehi)" rx="8" ry="8" style="stroke:#383838;stroke-width:1.5;"/><path d="M303.5,115.5 L303.5,142.5 M290.5,123.5 L316.5,123.5 M303.5,142.5 L290.5,157.5 M303.5,142.5 L316.5,157.5 " fill="none" filter="url(#f1hg58kfrprehi)" style="stroke:#383838;stroke-width:1.5;"/><text fill="#000000" font-family="sans-serif" font-size="14" lengthAdjust="spacing" textLength="29" x="289" y="176.9999">clerk</text><!--MD5=[852381a7bb976b86080137fb6d718ea9]
link customer to checkout--><path d="M62.23,139 C79.99,139 103.7,139 124.75,139 " fill="none" id="customer-checkout" style="stroke:#383838;stroke-width:1.0;"/><!--MD5=[3ad5c6d5c608bfd6b87dc9c07c40a15f]
link checkout to payment--><path d="M175.5,123.96 C175.5,110.87 175.5,91.77 175.5,77.32 " fill="none" id="checkout-to-payment" style="stroke:#383838;stroke-width:1.0;stroke-dasharray:7.0,7.0;"/><polygon fill="#383838" points="175.5,72.22,171.5,81.22,175.5,77.22,179.5,81.22,175.5,72.22" style="stroke:#383838;stroke-width:1.0;"/><text fill="#000000" font-family="sans-serif" font-size="13" lengthAdjust="spacing" textLength="41" x="143.5" y="103.5">include</text><!--MD5=[739e7928149c8fe27c2b5850560351c7]
link help to checkout--><path d="M175.5,205.96 C175.5,192.87 175.5,173.77 175.5,159.32 " fill="none" id="help-to-checkout" style="stroke:#383838;stroke-width:1.0;stroke-dasharray:7.0,7.0;"/><polygon fill="#383838" points="175.5,154.22,171.5,163.22,175.5,159.22,179.5,163.22,175.5,154.22" style="stroke:#383838;stroke-width:1.0;"/><text fill="#000000" font-family="sans-serif" font-size="13" lengthAdjust="spacing" textLength="44" x="142" y="185.5">extends</text><!--MD5=[b4c4ee8f2d94c159d2b9e04bd372cbe0]
link checkout to clerk--><path d="M226.3,139 C248.86,139 273.79,139 288.79,139 " fill="none" id="checkout-clerk" style="stroke:#383838;stroke-width:1.0;"/><!--MD5=[e63330a76f21baa58c866ccf4b836014]
@startuml
left to right direction
skinparam packageStyle rectangle
skinparam monochrome true
actor customer
actor clerk
rectangle checkout {
  customer - - (checkout)
  (checkout) .> (payment) : include
  (help) .> (checkout) : extends
  (checkout) - - clerk
}
@enduml

PlantUML version 1.2021.8(Sat Jun 26 08:20:59 GMT 2021)
(GPL source distribution)
Java Runtime: OpenJDK Runtime Environment
JVM: OpenJDK 64-Bit Server VM
Default Encoding: UTF-8
Language: en
Country: US
--></g></svg>