<?xml version="1.0" encoding="UTF-8" standalone="no"?><svg xmlns="http://www.w3.org/2000/svg" xmlns:xlink="http://www.w3.org/1999/xlink" contentScriptType="application/ecmascript" contentStyleType="text/css" height="436px" preserveAspectRatio="none" style="width:334px;height:436px;background:#FFFFFF;" version="1.1" viewBox="0 0 334 436" width="334px" zoomAndPan="magnify"><defs><filter height="300%" id="f13b8x7rvse0nk" width="300%" x="-1" y="-1"><feGaussianBlur result="blurOut" stdDeviation="2.0"/><feColorMatrix in="blurOut" result="blurOut2" type="matrix" values="0 0 0 0 0 0 0 0 0 0 0 0 0 0 0 0 0 0 .4 0"/><feOffset dx="4.0" dy="4.0" in="blurOut2" result="blurOut3"/><feBlend in="SourceGraphic" in2="blurOut3" mode="normal"/></filter></defs><g><rect fill="#FFFFFF" filter="url(#f13b8x7rvse0nk)" height="288.7999" style="stroke:#000000;stroke-width:2.0;" width="310.5" x="10" y="87.3999"/><rect fill="#FFFFFF" height="196.8" style="stroke:none;stroke-width:1.0;" width="310.5" x="10" y="134.6"/><rect fill="#FFFFFF" filter="url(#f13b8x7rvse0nk)" height="138.0001" style="stroke:#000000;stroke-width:2.0;" width="290.5" x="20" y="186.3999"/><rect fill="#FFFFFF" filter="url(#f13b8x7rvse0nk)" height="47.2" style="stroke:#000000;stroke-width:2.0;" width="229.5" x="30" y="240.5999"/><rect fill="#FFFFFF" height="44.7999" style="stroke:none;stroke-width:1.0;" width="310.5" x="10" y="331.4"/><line style="stroke:#A80036;stroke-width:1.0;stroke-dasharray:5.0,5.0;" x1="63" x2="63" y1="40.7999" y2="393.1999"/><line style="stroke:#A80036;stroke-width:1.0;stroke-dasharray:5.0,5.0;" x1="228.5" x2="228.5" y1="40.7999" y2="393.1999"/><line style="stroke:#A80036;stroke-width:1.0;stroke-dasharray:5.0,5.0;" x1="279.5" x2="279.5" y1="40.7999" y2="393.1999"/><rect fill="#FEFECE" filter="url(#f13b8x7rvse0nk)" height="30.7999" style="stroke:#A80036;stroke-width:1.5;" width="43" x="40" y="5"/><text fill="#000000" font-family="sans-serif" font-size="14" lengthAdjust="spacing" textLength="29" x="47" y="25.9999">Alice</text><rect fill="#FEFECE" filter="url(#f13b8x7rvse0nk)" height="30.7999" style="stroke:#A80036;stroke-width:1.5;" width="43" x="40" y="392.1999"/><text fill="#000000" font-family="sans-serif" font-size="14" lengthAdjust="spacing" textLength="29" x="47" y="413.1998">Alice</text><rect fill="#FEFECE" filter="url(#f13b8x7rvse0nk)" height="30.7999" style="stroke:#A80036;stroke-width:1.5;" width="38" x="207.5" y="5"/><text fill="#000000" font-family="sans-serif" font-size="14" lengthAdjust="spacing" textLength="24" x="214.5" y="25.9999">Bob</text><rect fill="#FEFECE" filter="url(#f13b8x7rvse0nk)" height="30.7999" style="stroke:#A80036;stroke-width:1.5;" width="38" x="207.5" y="392.1999"/><text fill="#000000" font-family="sans-serif" font-size="14" lengthAdjust="spacing" textLength="24" x="214.5" y="413.1998">Bob</text><rect fill="#FEFECE" filter="url(#f13b8x7rvse0nk)" height="30.7999" style="stroke:#A80036;stroke-width:1.5;" width="37" x="259.5" y="5"/><text fill="#000000" font-family="sans-serif" font-size="14" lengthAdjust="spacing" textLength="23" x="266.5" y="25.9999">Log</text><rect fill="#FEFECE" filter="url(#f13b8x7rvse0nk)" height="30.7999" style="stroke:#A80036;stroke-width:1.5;" width="37" x="259.5" y="392.1999"/><text fill="#000000" font-family="sans-serif" font-size="14" lengthAdjust="spacing" textLength="23" x="266.5" y="413.1998">Log</text><polygon fill="#A80036" points="216.5,68.3999,226.5,72.3999,216.5,76.3999,220.5,72.3999" style="stroke:#A80036;stroke-width:1.0;"/><line style="stroke:#A80036;stroke-width:1.0;" x1="63.5" x2="222.5" y1="72.3999" y2="72.3999"/><text fill="#000000" font-family="sans-serif" font-size="13" lengthAdjust="spacing" textLength="133" x="70.5" y="67.7999">Authentication Request</text><path d="M10,87.3999 L70,87.3999 L70,94.3999 L60,104.3999 L10,104.3999 L10,87.3999 " fill="#EEEEEE" style="stroke:#000000;stroke-width:1.0;"/><rect fill="none" height="288.7999" style="stroke:#000000;stroke-width:2.0;" width="310.5" x="10" y="87.3999"/><text fill="#000000" font-family="sans-serif" font-size="13" font-weight="bold" lengthAdjust="spacing" textLength="15" x="25" y="101.4">alt</text><text fill="#000000" font-family="sans-serif" font-size="11" font-weight="bold" lengthAdjust="spacing" textLength="92" x="85" y="100.3999">[successful case]</text><polygon fill="#A80036" points="74.5,122.6,64.5,126.6,74.5,130.6,70.5,126.6" style="stroke:#A80036;stroke-width:1.0;"/><line style="stroke:#A80036;stroke-width:1.0;" x1="68.5" x2="227.5" y1="126.6" y2="126.6"/><text fill="#000000" font-family="sans-serif" font-size="13" lengthAdjust="spacing" textLength="141" x="80.5" y="122">Authentication Accepted</text><line style="stroke:#000000;stroke-width:1.0;stroke-dasharray:2.0,2.0;" x1="10" x2="320.5" y1="135.6" y2="135.6"/><text fill="#000000" font-family="sans-serif" font-size="11" font-weight="bold" lengthAdjust="spacing" textLength="113" x="15" y="146.5999">[some kind of failure]</text><polygon fill="#A80036" points="74.5,167.3999,64.5,171.3999,74.5,175.3999,70.5,171.3999" style="stroke:#A80036;stroke-width:1.0;"/><line style="stroke:#A80036;stroke-width:1.0;" x1="68.5" x2="227.5" y1="171.3999" y2="171.3999"/><text fill="#000000" font-family="sans-serif" font-size="13" lengthAdjust="spacing" textLength="125" x="80.5" y="166.7999">Authentication Failure</text><path d="M20,186.3999 L148,186.3999 L148,193.3999 L138,203.3999 L20,203.3999 L20,186.3999 " fill="#EEEEEE" style="stroke:#000000;stroke-width:1.0;"/><rect fill="none" height="138.0001" style="stroke:#000000;stroke-width:2.0;" width="290.5" x="20" y="186.3999"/><text fill="#000000" font-family="sans-serif" font-size="13" font-weight="bold" lengthAdjust="spacing" textLength="83" x="35" y="200.3999">My own label</text><polygon fill="#A80036" points="268,221.5999,278,225.5999,268,229.5999,272,225.5999" style="stroke:#A80036;stroke-width:1.0;"/><line style="stroke:#A80036;stroke-width:1.0;" x1="63.5" x2="274" y1="225.5999" y2="225.5999"/><text fill="#000000" font-family="sans-serif" font-size="13" lengthAdjust="spacing" textLength="88" x="70.5" y="220.9999">Log attack start</text><path d="M30,240.5999 L103,240.5999 L103,247.5999 L93,257.5999 L30,257.5999 L30,240.5999 " fill="#EEEEEE" style="stroke:#000000;stroke-width:1.0;"/><rect fill="none" height="47.2" style="stroke:#000000;stroke-width:2.0;" width="229.5" x="30" y="240.5999"/><text fill="#000000" font-family="sans-serif" font-size="13" font-weight="bold" lengthAdjust="spacing" textLength="28" x="45" y="254.5999">loop</text><text fill="#000000" font-family="sans-serif" font-size="11" font-weight="bold" lengthAdjust="spacing" textLength="64" x="118" y="253.5998">[1000 times]</text><polygon fill="#A80036" points="216.5,275.7999,226.5,279.7999,216.5,283.7999,220.5,279.7999" style="stroke:#A80036;stroke-width:1.0;"/><line style="stroke:#A80036;stroke-width:1.0;" x1="63.5" x2="222.5" y1="279.7999" y2="279.7999"/><text fill="#000000" font-family="sans-serif" font-size="13" lengthAdjust="spacing" textLength="68" x="70.5" y="275.1999">DNS Attack</text><polygon fill="#A80036" points="268,312.4,278,316.4,268,320.4,272,316.4" style="stroke:#A80036;stroke-width:1.0;"/><line style="stroke:#A80036;stroke-width:1.0;" x1="63.5" x2="274" y1="316.4" y2="316.4"/><text fill="#000000" font-family="sans-serif" font-size="13" lengthAdjust="spacing" textLength="84" x="70.5" y="311.7999">Log attack end</text><line style="stroke:#000000;stroke-width:1.0;stroke-dasharray:2.0,2.0;" x1="10" x2="320.5" y1="332.4" y2="332.4"/><text fill="#000000" font-family="sans-serif" font-size="11" font-weight="bold" lengthAdjust="spacing" textLength="127" x="15" y="343.3999">[Another type of failure]</text><polygon fill="#A80036" points="74.5,364.1999,64.5,368.1999,74.5,372.1999,70.5,368.1999" style="stroke:#A80036;stroke-width:1.0;"/><line style="stroke:#A80036;stroke-width:1.0;" x1="68.5" x2="227.5" y1="368.1999" y2="368.1999"/><text fill="#000000" font-family="sans-serif" font-size="13" lengthAdjust="spacing" textLength="78" x="80.5" y="363.5999">Please repeat</text><!--MD5=[044f113c3d87713315a80184174abcce]
@startuml
Alice -> Bob: Authentication Request

alt successful case

    Bob -> Alice: Authentication Accepted

else some kind of failure

    Bob -> Alice: Authentication Failure
    group My own label
    Alice -> Log : Log attack start
        loop 1000 times
            Alice -> Bob: DNS Attack
        end
    Alice -> Log : Log attack end
    end

else Another type of failure

   Bob -> Alice: Please repeat

end
@enduml

PlantUML version 1.2021.8(Sat Jun 26 08:20:59 GMT 2021)
(GPL source distribution)
Java Runtime: OpenJDK Runtime Environment
JVM: OpenJDK 64-Bit Server VM
Default Encoding: UTF-8
Language: en
Country: US
--></g></svg>