<?xml version="1.0" encoding="UTF-8" standalone="no"?><svg xmlns="http://www.w3.org/2000/svg" xmlns:xlink="http://www.w3.org/1999/xlink" contentScriptType="application/ecmascript" contentStyleType="text/css" height="391px" preserveAspectRatio="none" style="width:615px;height:391px;background:#FFFFFF;" version="1.1" viewBox="0 0 615 391" width="615px" zoomAndPan="magnify"><defs><filter height="300%" id="f1b63j0t6g9w53" width="300%" x="-1" y="-1"><feGaussianBlur result="blurOut" stdDeviation="2.0"/><feColorMatrix in="blurOut" result="blurOut2" type="matrix" values="0 0 0 0 0 0 0 0 0 0 0 0 0 0 0 0 0 0 .4 0"/><feOffset dx="4.0" dy="4.0" in="blurOut2" result="blurOut3"/><feBlend in="SourceGraphic" in2="blurOut3" mode="normal"/></filter></defs><g><rect fill="#F8F8F8" filter="url(#f1b63j0t6g9w53)" height="36.7999" rx="12.5" ry="12.5" style="stroke:#383838;stroke-width:1.5;" width="40" x="305" y="176.1998"/><text fill="#000000" font-family="sans-serif" font-size="14" lengthAdjust="spacing" textLength="20" x="315" y="200.1997">OS</text><rect fill="#F8F8F8" filter="url(#f1b63j0t6g9w53)" height="36.7999" rx="12.5" ry="12.5" style="stroke:#383838;stroke-width:1.5;" width="66" x="395" y="105.1999"/><text fill="#000000" font-family="sans-serif" font-size="14" lengthAdjust="spacing" textLength="46" x="405" y="129.1998">Ubuntu</text><rect fill="#F8F8F8" filter="url(#f1b63j0t6g9w53)" height="36.7999" rx="12.5" ry="12.5" style="stroke:#383838;stroke-width:1.5;" width="85" x="511" y="20"/><text fill="#000000" font-family="sans-serif" font-size="14" lengthAdjust="spacing" textLength="65" x="521" y="43.9999">Linux Mint</text><path d="M461,123.5999 L471,123.5999 C486,123.5999 486,38.4 501,38.4 L511,38.4 " fill="none" style="stroke:#383838;stroke-width:1.0;"/><rect fill="#F8F8F8" filter="url(#f1b63j0t6g9w53)" height="36.7999" rx="12.5" ry="12.5" style="stroke:#383838;stroke-width:1.5;" width="73" x="511" y="76.7999"/><text fill="#000000" font-family="sans-serif" font-size="14" lengthAdjust="spacing" textLength="53" x="521" y="100.7999">Kubuntu</text><path d="M461,123.5999 L471,123.5999 C486,123.5999 486,95.1999 501,95.1999 L511,95.1999 " fill="none" style="stroke:#383838;stroke-width:1.0;"/><rect fill="#F8F8F8" filter="url(#f1b63j0t6g9w53)" height="36.7999" rx="12.5" ry="12.5" style="stroke:#383838;stroke-width:1.5;" width="72" x="511" y="133.5999"/><text fill="#000000" font-family="sans-serif" font-size="14" lengthAdjust="spacing" textLength="52" x="521" y="157.5998">Lubuntu</text><path d="M461,123.5999 L471,123.5999 C486,123.5999 486,151.9998 501,151.9998 L511,151.9998 " fill="none" style="stroke:#383838;stroke-width:1.0;"/><rect fill="#F8F8F8" filter="url(#f1b63j0t6g9w53)" height="36.7999" rx="12.5" ry="12.5" style="stroke:#383838;stroke-width:1.5;" width="84" x="511" y="190.3998"/><text fill="#000000" font-family="sans-serif" font-size="14" lengthAdjust="spacing" textLength="64" x="521" y="214.3997">KDE Neon</text><path d="M461,123.5999 L471,123.5999 C486,123.5999 486,208.7997 501,208.7997 L511,208.7997 " fill="none" style="stroke:#383838;stroke-width:1.0;"/><path d="M345,194.5998 L355,194.5998 C370,194.5998 370,123.5999 385,123.5999 L395,123.5999 " fill="none" style="stroke:#383838;stroke-width:1.0;"/><rect fill="#F8F8F8" filter="url(#f1b63j0t6g9w53)" height="36.7999" rx="12.5" ry="12.5" style="stroke:#383838;stroke-width:1.5;" width="59" x="395" y="161.9998"/><text fill="#000000" font-family="sans-serif" font-size="14" lengthAdjust="spacing" textLength="39" x="405" y="185.9998">LMDE</text><path d="M345,194.5998 L355,194.5998 C370,194.5998 370,180.3998 385,180.3998 L395,180.3998 " fill="none" style="stroke:#383838;stroke-width:1.0;"/><rect fill="#F8F8F8" filter="url(#f1b63j0t6g9w53)" height="36.7999" rx="12.5" ry="12.5" style="stroke:#383838;stroke-width:1.5;" width="72" x="395" y="218.7997"/><text fill="#000000" font-family="sans-serif" font-size="14" lengthAdjust="spacing" textLength="52" x="405" y="242.7997">SolydXK</text><path d="M345,194.5998 L355,194.5998 C370,194.5998 370,237.1997 385,237.1997 L395,237.1997 " fill="none" style="stroke:#383838;stroke-width:1.0;"/><rect fill="#F8F8F8" filter="url(#f1b63j0t6g9w53)" height="36.7999" rx="12.5" ry="12.5" style="stroke:#383838;stroke-width:1.5;" width="79" x="395" y="275.5997"/><text fill="#000000" font-family="sans-serif" font-size="14" lengthAdjust="spacing" textLength="59" x="405" y="299.5996">SteamOS</text><path d="M345,194.5998 L355,194.5998 C370,194.5998 370,293.9996 385,293.9996 L395,293.9996 " fill="none" style="stroke:#383838;stroke-width:1.0;"/><rect fill="#F8F8F8" filter="url(#f1b63j0t6g9w53)" height="36.7999" rx="12.5" ry="12.5" style="stroke:#383838;stroke-width:1.5;" width="80" x="395" y="332.3996"/><text fill="#000000" font-family="sans-serif" font-size="14" lengthAdjust="spacing" textLength="60" x="405" y="356.3995">Raspbian</text><path d="M345,194.5998 L355,194.5998 C370,194.5998 370,350.7996 385,350.7996 L395,350.7996 " fill="none" style="stroke:#383838;stroke-width:1.0;"/><rect fill="#F8F8F8" filter="url(#f1b63j0t6g9w53)" height="36.7999" rx="12.5" ry="12.5" style="stroke:#383838;stroke-width:1.5;" width="96" x="159" y="105.1999"/><text fill="#000000" font-family="sans-serif" font-size="14" lengthAdjust="spacing" textLength="76" x="169" y="129.1998">Windows 95</text><path d="M305,194.5998 L295,194.5998 C280,194.5998 280,123.5999 265,123.5999 L255,123.5999 " fill="none" style="stroke:#383838;stroke-width:1.0;"/><rect fill="#F8F8F8" filter="url(#f1b63j0t6g9w53)" height="36.7999" rx="12.5" ry="12.5" style="stroke:#383838;stroke-width:1.5;" width="96" x="159" y="161.9998"/><text fill="#000000" font-family="sans-serif" font-size="14" lengthAdjust="spacing" textLength="76" x="169" y="185.9998">Windows 98</text><path d="M305,194.5998 L295,194.5998 C280,194.5998 280,180.3998 265,180.3998 L255,180.3998 " fill="none" style="stroke:#383838;stroke-width:1.0;"/><rect fill="#F8F8F8" filter="url(#f1b63j0t6g9w53)" height="36.7999" rx="12.5" ry="12.5" style="stroke:#383838;stroke-width:1.5;" width="99" x="156" y="218.7997"/><text fill="#000000" font-family="sans-serif" font-size="14" lengthAdjust="spacing" textLength="79" x="166" y="242.7997">Windows NT</text><rect fill="#F8F8F8" filter="url(#f1b63j0t6g9w53)" height="36.7999" rx="12.5" ry="12.5" style="stroke:#383838;stroke-width:1.5;" width="88" x="18" y="190.3998"/><text fill="#000000" font-family="sans-serif" font-size="14" lengthAdjust="spacing" textLength="68" x="28" y="214.3997">Windows 8</text><path d="M156,237.1997 L146,237.1997 C131,237.1997 131,208.7997 116,208.7997 L106,208.7997 " fill="none" style="stroke:#383838;stroke-width:1.0;"/><rect fill="#F8F8F8" filter="url(#f1b63j0t6g9w53)" height="36.7999" rx="12.5" ry="12.5" style="stroke:#383838;stroke-width:1.5;" width="96" x="10" y="247.1997"/><text fill="#000000" font-family="sans-serif" font-size="14" lengthAdjust="spacing" textLength="76" x="20" y="271.1996">Windows 10</text><path d="M156,237.1997 L146,237.1997 C131,237.1997 131,265.5997 116,265.5997 L106,265.5997 " fill="none" style="stroke:#383838;stroke-width:1.0;"/><path d="M305,194.5998 L295,194.5998 C280,194.5998 280,237.1997 265,237.1997 L255,237.1997 " fill="none" style="stroke:#383838;stroke-width:1.0;"/><!--MD5=[ef47e74d6a3c15b2496f01709366ac88]
@startmindmap
skinparam monochrome true
+ OS
++ Ubuntu
+++ Linux Mint
+++ Kubuntu
+++ Lubuntu
+++ KDE Neon
++ LMDE
++ SolydXK
++ SteamOS
++ Raspbian
- - Windows 95
- - Windows 98
- - Windows NT
- - - Windows 8
- - - Windows 10
@endmindmap

PlantUML version 1.2021.8(Sat Jun 26 08:20:59 GMT 2021)
(GPL source distribution)
Java Runtime: OpenJDK Runtime Environment
JVM: OpenJDK 64-Bit Server VM
Default Encoding: UTF-8
Language: en
Country: US
--></g></svg>